<svg xmlns="http://www.w3.org/2000/svg" width="1508" height="567" viewBox="0 0 1508 567">
  <defs>
    <style>
      .cls-1 {
        fill: #212121;
        fill-rule: evenodd;
      }
    </style>
  </defs>
  <path id="JEAN_forteroche" data-name="JEAN forteroche" class="cls-1" d="M659.291,116.843H612.349V133.03h30.593v47.913c0,22.5-20.395,32.7-46.132,32.7v16.348c34.8,0,62.481-15.377,62.481-49.045v-64.1Zm25.253,64.747h51.312V165.08H684.544V133.192h52.445V116.843H668.034V229.988h69.117V213.64H684.544V181.59Zm103.6-40.305,13.921,39.981H773.9Zm33.83,88.7h17.482L793.967,115.225H781.989L736.505,229.988h17.643c3.561-9.388,9.227-22.985,13.6-33.344h40.629Zm35.616,0V150.835L912.3,229.988h12.949V116.682H909.06v79.8l-55.2-79.8-12.626-.162V229.988h16.349ZM610.731,368.881h51.8v-2.59h-51.8V313.522h58.6v-2.428H608.3V424.239h2.428V368.881Zm179.027-1.295a55.567,55.567,0,0,1-16.025,39.172,54.532,54.532,0,0,1-78.181,0,55.491,55.491,0,0,1,0-78.344,54.532,54.532,0,0,1,78.181,0A55.567,55.567,0,0,1,789.758,367.586Zm-112.983,0a58.675,58.675,0,0,0,17,41.114,57.258,57.258,0,0,0,81.743,0,58.226,58.226,0,0,0,0-82.228,57.258,57.258,0,0,0-81.743,0A58.675,58.675,0,0,0,676.775,367.586Zm129.984-54.064H843.5c42.086,0,42.086,61.186,0,61.186H821.489v2.428l52.121,47.1h3.723l-52.121-47.1H843.5c45.323,0,45.323-66.2,0-66.2H804.331V424.239h2.428V313.522ZM908.415,424.239V313.522h39.172v-2.589H866.815v2.589h39.172V424.239h2.428Zm51.478-55.358h58.6v-2.59h-58.6V313.522h59.887v-2.428H957.3V424.239h62.807v-2.428H959.893v-52.93Zm74.467-55.359h36.74c42.08,0,42.08,61.186,0,61.186h-22.01v2.428l52.12,47.1h3.72l-52.12-47.1h18.29c45.32,0,45.32-66.2,0-66.2h-39.17V424.239h2.43V313.522Zm189.87,54.064a55.545,55.545,0,0,1-16.03,39.172,54.531,54.531,0,0,1-78.18,0,55.508,55.508,0,0,1,0-78.344,54.531,54.531,0,0,1,78.18,0A55.545,55.545,0,0,1,1224.23,367.586Zm-112.98,0a58.665,58.665,0,0,0,16.99,41.114,57.255,57.255,0,0,0,81.74,0,58.216,58.216,0,0,0,0-82.228,57.255,57.255,0,0,0-81.74,0A58.665,58.665,0,0,0,1111.25,367.586Zm230.5-22.014a56.688,56.688,0,0,0-11.66-17.643,54.348,54.348,0,0,0-78.34,0,57.261,57.261,0,0,0,0,79.8,54.35,54.35,0,0,0,78.34,0,56.692,56.692,0,0,0,11.66-17.644H1339a52.914,52.914,0,0,1-10.69,15.7,51.632,51.632,0,0,1-74.78,0,54.114,54.114,0,0,1-15.54-38.038,54.7,54.7,0,0,1,15.54-38.039,52,52,0,0,1,74.78,0A53.68,53.68,0,0,1,1339,345.572h2.75Zm14.73-34.478h-2.42V424.239h2.42V368.072h71.06v56.167h2.59V311.094h-2.59v54.55h-71.06v-54.55Zm91.3,57.787h58.6v-2.59h-58.6V313.522h59.89v-2.428h-62.48V424.239h62.8v-2.428h-60.21v-52.93Z"/>
  <path id="Forme_1" data-name="Forme 1" class="cls-1" d="M491,219l-64,76a10.647,10.647,0,0,0,1,13c-6.779,3.14-349,162-349,162l166,97L491,425V219Z"/>
  <path id="Forme_2" data-name="Forme 2" class="cls-1" d="M62,461l11,6L284,257s31.476,20.6,53-5,8.806-49.466-2-58c-10.318-7.56-33.409-19.679-55,1-17.936,15.075-15.7,38.052-5,53C266.937,256.613,62,461,62,461Z"/>
  <path id="Forme_3" data-name="Forme 3" class="cls-1" d="M59,459L0,425V141L245,0l69,40-75,64s-8.208,6.932-16,0C215.208,121.646,59,459,59,459Z"/>
</svg>
